Coordinates
version=1
nRows=12
nColumns=24
inDegrees=yes

Units are S.I. units (second, meters, Newtons, ...)
Angles are in degrees.

endheader
time	pelvis_tilt	pelvis_list	pelvis_rotation	pelvis_tx	pelvis_ty	pelvis_tz	hip_flexion_r	hip_adduction_r	hip_rotation_r	knee_angle_r	ankle_angle_r	subtalar_angle_r	mtp_angle_r	hip_flexion_l	hip_adduction_l	hip_rotation_l	knee_angle_l	ankle_angle_l	subtalar_angle_l	mtp_angle_l	lumbar_extension	lumbar_bending	lumbar_rotation
      0.01000000	     -4.78237032	      1.34248705	     -3.07900447	     -0.14148409	      0.94694301	      0.00563356	     -6.92748987	      1.27598575	     -2.18024436	     -4.40803937	      7.29476045	      0.00000036	      0.00000000	     36.86929287	     -1.96647769	     -8.66644822	    -15.55158301	     12.75914634	     -0.00000018	      0.00000000	    -11.26675122	     -3.51721205	      6.59378367
      0.02000000	     -4.80885618	      1.49226204	     -3.26427927	     -0.14155514	      0.94255134	      0.00513102	     -9.03922602	      0.85277872	     -4.05930567	     -2.11976635	      5.70854889	      0.00000057	      0.00000000	     36.85770019	     -1.70468027	     -7.69357600	    -12.82436547	     12.84613527	     -0.00000019	      0.00000000	    -11.16206035	     -3.70376804	      6.60569073
      0.03000000	     -4.82039903	      1.42087226	     -3.50394014	     -0.14152416	      0.93881734	      0.00458374	    -10.54928716	      1.06680489	     -0.68676634	     -1.14356762	      5.98610641	      0.00000019	      0.00000000	     36.89221821	     -1.69470603	     -6.70888297	    -10.69437071	     13.39067356	     -0.00000016	      0.00000000	    -11.09094532	     -3.64909037	      6.68812533
      0.04000000	     -4.73976587	      1.35594712	     -3.73242346	     -0.14091915	      0.93516900	      0.00417314	     -9.96018952	      0.53421763	     -3.42489914	     -4.50956965	      8.36460065	      0.00000046	      0.00000000	     37.05690803	     -1.63324718	     -6.00355016	     -9.54474997	     14.29854402	     -0.00000014	      0.00000000	    -11.09911766	     -3.63928932	      6.78594171
      0.05000000	     -4.65698518	      1.34757536	     -4.04001042	     -0.14050742	      0.93167642	      0.00417971	    -10.99404048	      0.32446901	     -3.26521959	     -4.67023892	      8.76546032	      0.00000048	      0.00000000	     37.19165330	     -1.54153276	     -6.10581684	     -8.79802469	     14.86478553	     -0.00000023	      0.00000000	    -11.14023582	     -3.76695128	      6.92075609
      0.06000000	     -4.60386260	      1.32982322	     -4.33512441	     -0.13991561	      0.92846971	      0.00411434	    -11.88388792	      0.07830148	     -3.24850891	     -5.08424670	      9.24284187	      0.00000054	      0.00000000	     37.25977904	     -1.40748637	     -6.69557260	     -8.40862828	     14.61797023	     -0.00000026	      0.00000000	    -11.17833273	     -3.88930262	      7.06392171
      0.07000000	     -4.52499976	      1.36337149	     -4.67075012	     -0.13903633	      0.92558994	      0.00401625	    -12.72424163	     -0.26890409	     -3.21777014	     -5.63654278	      9.64192164	      0.00000048	      0.00000000	     37.58509957	     -1.29378355	     -7.31136729	     -9.21367068	     14.08357557	     -0.00000031	      0.00000000	    -11.23408711	     -4.08456962	      7.28324197
      0.08000000	     -4.40653315	      1.42001564	     -5.04171875	     -0.13790064	      0.92314278	      0.00412136	    -13.44184669	     -0.67401250	     -3.16287877	     -6.53149469	     10.32023500	      0.00000059	      0.00000000	     38.21338994	     -1.28546485	     -7.71880174	    -11.41618964	     14.36316110	     -0.00000035	      0.00000000	    -11.33688418	     -4.33883779	      7.52536485
      0.09000000	     -4.31805547	      1.53639899	     -5.41269879	     -0.13650380	      0.92092506	      0.00400233	    -14.00676870	     -1.20780803	     -3.26311499	     -7.64439145	     10.83690868	      0.00000053	      0.00000000	     38.59352414	     -1.22542959	     -8.01320144	    -13.64740159	     14.41411431	     -0.00000035	      0.00000000	    -11.38086365	     -4.63680276	      7.76360376
      0.10000000	     -4.23598979	      1.69722230	     -5.79019141	     -0.13469646	      0.91914297	      0.00385177	    -14.49399192	     -1.79354593	     -3.23967345	     -8.89665846	     11.36816474	      0.00000059	      0.00000000	     38.69445909	     -1.17085480	     -8.13706820	    -15.40274757	      9.65057955	     -0.00000027	      0.00000000	    -11.39819585	     -5.01365726	      8.05447541
      0.11000000	     -4.17338024	      1.79225978	     -6.15561054	     -0.13247278	      0.91778899	      0.00374205	    -14.89663997	     -2.31294729	     -3.11155021	    -10.27083559	     12.07356864	      0.00000065	      0.00000000	     38.79835300	     -1.19613067	     -8.34614255	    -17.26831522	      5.80315583	     -0.00000020	      0.00000000	    -11.41331621	     -5.39194537	      8.44227320
      0.12000000	     -4.12465924	      1.83833774	     -6.51218165	     -0.13016033	      0.91642692	      0.00344779	    -15.03263808	     -2.85176976	     -3.05006813	    -12.10510032	     12.54648379	      0.00000064	      0.00000000	     38.84005092	     -1.26483098	     -8.64903432	    -18.85997307	      1.26025739	     -0.00000020	      0.00000000	    -11.31462001	     -5.59523264	      8.55466884
